<svg xmlns="http://www.w3.org/2000/svg" width="512" height="512" viewBox="0 0 512 512" version="1.1">
	<path d="M 363.285 1.904 C 359.079 3.867, 359.018 3.975, 335.230 51.685 C 321.227 79.770, 310.896 101.698, 310.195 104.826 C 308.593 111.968, 308.701 127.287, 310.398 133.661 C 312.311 140.848, 316.339 149.331, 320.579 155.108 L 324.170 160 369.500 160 L 414.830 160 418.421 155.108 C 422.661 149.331, 426.689 140.848, 428.602 133.661 C 430.301 127.281, 430.407 111.960, 428.801 104.826 C 428.101 101.718, 417.738 79.695, 403.912 51.938 C 385.916 15.809, 379.561 3.942, 377.472 2.574 C 373.351 -0.126, 368.163 -0.371, 363.285 1.904 M 353.500 301.567 C 349.650 302.409, 341.793 305.381, 336.040 308.170 C 326.826 312.637, 324.503 314.328, 316.540 322.370 C 306.236 332.776, 300.600 342.273, 296.877 355.500 C 293.988 365.767, 293.770 383.206, 296.408 392.942 C 303.511 419.149, 322.532 438.882, 348.500 446.984 C 357.339 449.742, 373.120 450.706, 382.568 449.064 C 402.851 445.541, 423.130 431.510, 433.923 413.533 C 445.156 394.824, 447.504 370.872, 440.144 350.074 C 436.154 338.798, 431.643 331.733, 422.500 322.440 C 413.366 313.155, 404.260 307.382, 392.500 303.420 C 382.360 300.004, 364.517 299.156, 353.500 301.567" stroke="none" fill="black" fill-rule="evenodd"/>
</svg>