<?xml version="1.0" encoding="utf-8"?>
<!-- Generator: Adobe Illustrator 16.0.0, SVG Export Plug-In . SVG Version: 6.00 Build 0)  -->
<!DOCTYPE svg PUBLIC "-//W3C//DTD SVG 1.1//EN" "http://www.w3.org/Graphics/SVG/1.1/DTD/svg11.dtd">
<svg version="1.1" id="圖層_1" focusable="false" xmlns="http://www.w3.org/2000/svg" xmlns:xlink="http://www.w3.org/1999/xlink"
	 x="0px" y="0px" width="595.281px" height="841.89px" viewBox="0 0 595.281 841.89" enable-background="new 0 0 595.281 841.89"
	 xml:space="preserve">
<path fill="#FFFFFF" d="M416.697,484.726c-38.135,0-56.473,21.26-119.057,21.26s-80.788-21.26-119.056-21.26
	C79.991,484.726,0,564.716,0,663.31v34.016c0,35.211,28.568,63.779,63.78,63.779H531.5c35.213,0,63.781-28.568,63.781-63.779V663.31
	C595.281,564.716,515.289,484.726,416.697,484.726z M531.5,697.326H63.78V663.31c0-63.25,51.555-114.805,114.804-114.805
	c19.4,0,50.891,21.26,119.056,21.26c68.697,0,99.523-21.26,119.057-21.26c63.248,0,114.803,51.555,114.803,114.805V697.326z
	 M297.64,463.464c105.635,0,191.34-85.704,191.34-191.339s-85.705-191.34-191.34-191.34c-105.636,0-191.34,85.704-191.34,191.34
	S192.004,463.464,297.64,463.464z M297.64,144.565c70.291,0,127.561,57.269,127.561,127.56s-57.27,127.56-127.561,127.56
	s-127.56-57.269-127.56-127.56S227.349,144.565,297.64,144.565z"/>
</svg>
